<svg width="254" height="202" viewBox="0 0 254 202" fill="none" xmlns="http://www.w3.org/2000/svg">
<g filter="url(#filter0_ddi_1_372)">
<path d="M75.919 145.828C73.9262 145.828 72.9298 145.828 72.0789 145.493C71.3586 145.21 70.717 144.757 70.2083 144.174C69.6074 143.485 69.2727 142.547 68.6034 140.67L54.465 101.022C54.1168 100.045 53.9426 99.5571 53.8753 99.0558C53.8179 98.6293 53.8179 98.1971 53.8753 97.7706C53.9426 97.2693 54.1168 96.781 54.465 95.8044L68.6033 56.158C69.2727 54.2811 69.6074 53.3426 70.2083 52.6535C70.717 52.0701 71.3586 51.6178 72.0789 51.3346C72.9298 51 73.9262 51 75.9189 51L178.581 51C180.553 51 181.54 51 182.384 51.329C183.099 51.6075 183.737 52.0525 184.246 52.6272C184.847 53.3059 185.187 54.2312 185.869 56.0818L200.476 95.7288C200.846 96.7332 201.031 97.2353 201.103 97.7518C201.164 98.1911 201.164 98.6366 201.103 99.0758C201.031 99.5923 200.846 100.094 200.476 101.099L185.869 140.746C185.187 142.596 184.847 143.522 184.246 144.2C183.737 144.775 183.099 145.22 182.384 145.499C181.54 145.828 180.553 145.828 178.581 145.828L75.919 145.828Z" fill="url(#paint0_diamond_1_372)"/>
<path d="M75.919 145.828C73.9262 145.828 72.9298 145.828 72.0789 145.493C71.3586 145.21 70.717 144.757 70.2083 144.174C69.6074 143.485 69.2727 142.547 68.6034 140.67L54.465 101.022C54.1168 100.045 53.9426 99.5571 53.8753 99.0558C53.8179 98.6293 53.8179 98.1971 53.8753 97.7706C53.9426 97.2693 54.1168 96.781 54.465 95.8044L68.6033 56.158C69.2727 54.2811 69.6074 53.3426 70.2083 52.6535C70.717 52.0701 71.3586 51.6178 72.0789 51.3346C72.9298 51 73.9262 51 75.9189 51L178.581 51C180.553 51 181.54 51 182.384 51.329C183.099 51.6075 183.737 52.0525 184.246 52.6272C184.847 53.3059 185.187 54.2312 185.869 56.0818L200.476 95.7288C200.846 96.7332 201.031 97.2353 201.103 97.7518C201.164 98.1911 201.164 98.6366 201.103 99.0758C201.031 99.5923 200.846 100.094 200.476 101.099L185.869 140.746C185.187 142.596 184.847 143.522 184.246 144.2C183.737 144.775 183.099 145.22 182.384 145.499C181.54 145.828 180.553 145.828 178.581 145.828L75.919 145.828Z" fill="url(#paint1_diamond_1_372)"/>
<path d="M75.919 145.828C73.9262 145.828 72.9298 145.828 72.0789 145.493C71.3586 145.21 70.717 144.757 70.2083 144.174C69.6074 143.485 69.2727 142.547 68.6034 140.67L54.465 101.022C54.1168 100.045 53.9426 99.5571 53.8753 99.0558C53.8179 98.6293 53.8179 98.1971 53.8753 97.7706C53.9426 97.2693 54.1168 96.781 54.465 95.8044L68.6033 56.158C69.2727 54.2811 69.6074 53.3426 70.2083 52.6535C70.717 52.0701 71.3586 51.6178 72.0789 51.3346C72.9298 51 73.9262 51 75.9189 51L178.581 51C180.553 51 181.54 51 182.384 51.329C183.099 51.6075 183.737 52.0525 184.246 52.6272C184.847 53.3059 185.187 54.2312 185.869 56.0818L200.476 95.7288C200.846 96.7332 201.031 97.2353 201.103 97.7518C201.164 98.1911 201.164 98.6366 201.103 99.0758C201.031 99.5923 200.846 100.094 200.476 101.099L185.869 140.746C185.187 142.596 184.847 143.522 184.246 144.2C183.737 144.775 183.099 145.22 182.384 145.499C181.54 145.828 180.553 145.828 178.581 145.828L75.919 145.828Z" fill="url(#paint2_linear_1_372)"/>
</g>
<g filter="url(#filter1_i_1_372)">
<path d="M83.0086 138.646C81.0465 138.646 80.0654 138.646 79.224 138.319C78.5116 138.043 77.875 137.602 77.3666 137.031C76.7661 136.358 76.4223 135.439 75.7345 133.601L63.5839 101.136C63.2029 100.118 63.0124 99.6091 62.9387 99.0852C62.8761 98.6397 62.8761 98.1876 62.9387 97.742C63.0124 97.2181 63.2029 96.7091 63.5839 95.6912L75.7345 63.2261C76.4223 61.3885 76.7661 60.4697 77.3666 59.796C77.875 59.2256 78.5116 58.7841 79.224 58.5079C80.0654 58.1817 81.0465 58.1817 83.0086 58.1817L173.587 58.1817C175.6 58.1817 176.607 58.1817 177.464 58.5218C178.189 58.8097 178.834 59.2693 179.343 59.8613C179.944 60.5606 180.272 61.5121 180.929 63.4152L192.131 95.8803C192.458 96.8294 192.622 97.3039 192.685 97.7903C192.739 98.2041 192.739 98.6232 192.685 99.037C192.622 99.5234 192.458 99.9979 192.131 100.947L180.929 133.412C180.272 135.315 179.944 136.267 179.343 136.966C178.834 137.558 178.189 138.018 177.464 138.305C176.607 138.646 175.6 138.646 173.587 138.646L83.0086 138.646Z" fill="#E3F0FF"/>
</g>
<g filter="url(#filter2_ddi_1_372)">
<path d="M75.919 145.828C73.9262 145.828 72.9298 145.828 72.0789 145.493C71.3586 145.21 70.717 144.757 70.2083 144.174C69.6074 143.485 69.2727 142.547 68.6034 140.67L54.465 101.022C54.1168 100.045 53.9426 99.5571 53.8753 99.0558C53.8179 98.6293 53.8179 98.1971 53.8753 97.7706C53.9426 97.2693 54.1168 96.781 54.465 95.8044L68.6033 56.158C69.2727 54.2811 69.6074 53.3426 70.2083 52.6535C70.717 52.0701 71.3586 51.6178 72.0789 51.3346C72.9298 51 73.9262 51 75.9189 51L178.581 51C180.553 51 181.54 51 182.384 51.329C183.099 51.6075 183.737 52.0525 184.246 52.6272C184.847 53.3059 185.187 54.2312 185.869 56.0818L200.476 95.7288C200.846 96.7332 201.031 97.2353 201.103 97.7518C201.164 98.1911 201.164 98.6366 201.103 99.0758C201.031 99.5923 200.846 100.094 200.476 101.099L185.869 140.746C185.187 142.596 184.847 143.522 184.246 144.2C183.737 144.775 183.099 145.22 182.384 145.499C181.54 145.828 180.553 145.828 178.581 145.828L75.919 145.828Z" fill="url(#paint3_diamond_1_372)"/>
<path d="M75.919 145.828C73.9262 145.828 72.9298 145.828 72.0789 145.493C71.3586 145.21 70.717 144.757 70.2083 144.174C69.6074 143.485 69.2727 142.547 68.6034 140.67L54.465 101.022C54.1168 100.045 53.9426 99.5571 53.8753 99.0558C53.8179 98.6293 53.8179 98.1971 53.8753 97.7706C53.9426 97.2693 54.1168 96.781 54.465 95.8044L68.6033 56.158C69.2727 54.2811 69.6074 53.3426 70.2083 52.6535C70.717 52.0701 71.3586 51.6178 72.0789 51.3346C72.9298 51 73.9262 51 75.9189 51L178.581 51C180.553 51 181.54 51 182.384 51.329C183.099 51.6075 183.737 52.0525 184.246 52.6272C184.847 53.3059 185.187 54.2312 185.869 56.0818L200.476 95.7288C200.846 96.7332 201.031 97.2353 201.103 97.7518C201.164 98.1911 201.164 98.6366 201.103 99.0758C201.031 99.5923 200.846 100.094 200.476 101.099L185.869 140.746C185.187 142.596 184.847 143.522 184.246 144.2C183.737 144.775 183.099 145.22 182.384 145.499C181.54 145.828 180.553 145.828 178.581 145.828L75.919 145.828Z" fill="url(#paint4_diamond_1_372)"/>
<path d="M75.919 145.828C73.9262 145.828 72.9298 145.828 72.0789 145.493C71.3586 145.21 70.717 144.757 70.2083 144.174C69.6074 143.485 69.2727 142.547 68.6034 140.67L54.465 101.022C54.1168 100.045 53.9426 99.5571 53.8753 99.0558C53.8179 98.6293 53.8179 98.1971 53.8753 97.7706C53.9426 97.2693 54.1168 96.781 54.465 95.8044L68.6033 56.158C69.2727 54.2811 69.6074 53.3426 70.2083 52.6535C70.717 52.0701 71.3586 51.6178 72.0789 51.3346C72.9298 51 73.9262 51 75.9189 51L178.581 51C180.553 51 181.54 51 182.384 51.329C183.099 51.6075 183.737 52.0525 184.246 52.6272C184.847 53.3059 185.187 54.2312 185.869 56.0818L200.476 95.7288C200.846 96.7332 201.031 97.2353 201.103 97.7518C201.164 98.1911 201.164 98.6366 201.103 99.0758C201.031 99.5923 200.846 100.094 200.476 101.099L185.869 140.746C185.187 142.596 184.847 143.522 184.246 144.2C183.737 144.775 183.099 145.22 182.384 145.499C181.54 145.828 180.553 145.828 178.581 145.828L75.919 145.828Z" fill="url(#paint5_linear_1_372)"/>
</g>
<g filter="url(#filter3_i_1_372)">
<path d="M83.0086 138.646C81.0465 138.646 80.0654 138.646 79.224 138.319C78.5116 138.043 77.875 137.602 77.3666 137.031C76.7661 136.358 76.4223 135.439 75.7345 133.601L63.5839 101.136C63.2029 100.118 63.0124 99.6091 62.9387 99.0852C62.8761 98.6397 62.8761 98.1876 62.9387 97.742C63.0124 97.2181 63.2029 96.7091 63.5839 95.6912L75.7345 63.2261C76.4223 61.3885 76.7661 60.4697 77.3666 59.796C77.875 59.2256 78.5116 58.7841 79.224 58.5079C80.0654 58.1817 81.0465 58.1817 83.0086 58.1817L173.587 58.1817C175.6 58.1817 176.607 58.1817 177.464 58.5218C178.189 58.8097 178.834 59.2693 179.343 59.8613C179.944 60.5606 180.272 61.5121 180.929 63.4152L192.131 95.8803C192.458 96.8294 192.622 97.3039 192.685 97.7903C192.739 98.2041 192.739 98.6232 192.685 99.037C192.622 99.5234 192.458 99.9979 192.131 100.947L180.929 133.412C180.272 135.315 179.944 136.267 179.343 136.966C178.834 137.558 178.189 138.018 177.464 138.305C176.607 138.646 175.6 138.646 173.587 138.646L83.0086 138.646Z" fill="#E3F0FF"/>
</g>
<g filter="url(#filter4_dd_1_372)">
<path d="M94.8574 129.343C93.538 129.343 92.8784 129.343 92.302 129.133C91.8136 128.956 91.371 128.672 91.0067 128.301C90.5766 127.864 90.3024 127.264 89.7538 126.064L78.605 101.679C78.2085 100.812 78.0102 100.378 77.9339 99.9261C77.8691 99.542 77.8691 99.1497 77.9339 98.7657C78.0102 98.3136 78.2085 97.8799 78.605 97.0125L89.7538 72.6274C90.3024 71.4275 90.5766 70.8276 91.0066 70.3904C91.371 70.02 91.8136 69.7357 92.302 69.5584C92.8784 69.3491 93.538 69.3491 94.8573 69.3491L163.048 69.3491C164.414 69.3491 165.097 69.3491 165.689 69.5709C166.19 69.7587 166.641 70.0595 167.007 70.4498C167.439 70.9106 167.702 71.5411 168.228 72.8021L178.39 97.1872C178.725 97.992 178.893 98.3944 178.958 98.8112C179.013 99.1655 179.013 99.5262 178.958 99.8805C178.893 100.297 178.725 100.7 178.39 101.505L168.228 125.89C167.702 127.151 167.439 127.781 167.007 128.242C166.641 128.632 166.19 128.933 165.689 129.121C165.097 129.343 164.414 129.343 163.048 129.343L94.8574 129.343Z" fill="url(#paint6_diamond_1_372)"/>
<path d="M94.8574 129.343C93.538 129.343 92.8784 129.343 92.302 129.133C91.8136 128.956 91.371 128.672 91.0067 128.301C90.5766 127.864 90.3024 127.264 89.7538 126.064L78.605 101.679C78.2085 100.812 78.0102 100.378 77.9339 99.9261C77.8691 99.542 77.8691 99.1497 77.9339 98.7657C78.0102 98.3136 78.2085 97.8799 78.605 97.0125L89.7538 72.6274C90.3024 71.4275 90.5766 70.8276 91.0066 70.3904C91.371 70.02 91.8136 69.7357 92.302 69.5584C92.8784 69.3491 93.538 69.3491 94.8573 69.3491L163.048 69.3491C164.414 69.3491 165.097 69.3491 165.689 69.5709C166.19 69.7587 166.641 70.0595 167.007 70.4498C167.439 70.9106 167.702 71.5411 168.228 72.8021L178.39 97.1872C178.725 97.992 178.893 98.3944 178.958 98.8112C179.013 99.1655 179.013 99.5262 178.958 99.8805C178.893 100.297 178.725 100.7 178.39 101.505L168.228 125.89C167.702 127.151 167.439 127.781 167.007 128.242C166.641 128.632 166.19 128.933 165.689 129.121C165.097 129.343 164.414 129.343 163.048 129.343L94.8574 129.343Z" fill="url(#paint7_linear_1_372)"/>
</g>
<path d="M112.818 98.7852C116.626 97.65 125.173 94.0013 127.922 83.6632C128.055 83.1626 128.803 83.142 128.963 83.6355C130.232 87.5447 134.03 95.683 144.205 98.7421C144.707 98.893 144.714 99.5585 144.213 99.7121C140.498 100.851 132.391 104.488 129.103 115.057C128.951 115.547 128.208 115.541 128.064 115.048C126.939 111.194 123.368 103.061 112.812 99.754C112.314 99.5981 112.317 98.9343 112.818 98.7852Z" fill="white"/>
<g filter="url(#filter5_f_1_372)">
<path d="M112.818 98.7852C116.626 97.65 125.173 94.0013 127.922 83.6632C128.055 83.1626 128.803 83.142 128.963 83.6355C130.232 87.5447 134.03 95.683 144.205 98.7421C144.707 98.893 144.714 99.5585 144.213 99.7121C140.498 100.851 132.391 104.488 129.103 115.057C128.951 115.547 128.208 115.541 128.064 115.048C126.939 111.194 123.368 103.061 112.812 99.754C112.314 99.5981 112.317 98.9343 112.818 98.7852Z" fill="white" fill-opacity="0.9"/>
</g>
<path d="M96 26.1818L97.875 28L102 24" stroke="url(#paint8_linear_1_372)" stroke-width="1.5" stroke-linecap="round" stroke-linejoin="round"/>
<defs>
<filter id="filter0_ddi_1_372" x="0.986305" y="0.814397" width="253.008" height="200.52" filterUnits="userSpaceOnUse" color-interpolation-filters="sRGB">
<feFlood flood-opacity="0" result="BackgroundImageFix"/>
<feColorMatrix in="SourceAlpha" type="matrix" values="0 0 0 0 0 0 0 0 0 0 0 0 0 0 0 0 0 0 127 0" result="hardAlpha"/>
<feOffset dy="2.66037"/>
<feGaussianBlur stdDeviation="22.1928"/>
<feComposite in2="hardAlpha" operator="out"/>
<feColorMatrix type="matrix" values="0 0 0 0 0.843137 0 0 0 0 0.886275 0 0 0 0 0.92549 0 0 0 0.34 0"/>
<feBlend mode="normal" in2="BackgroundImageFix" result="effect1_dropShadow_1_372"/>
<feColorMatrix in="SourceAlpha" type="matrix" values="0 0 0 0 0 0 0 0 0 0 0 0 0 0 0 0 0 0 127 0" result="hardAlpha"/>
<feOffset dy="2.66037"/>
<feGaussianBlur stdDeviation="26.423"/>
<feComposite in2="hardAlpha" operator="out"/>
<feColorMatrix type="matrix" values="0 0 0 0 1 0 0 0 0 1 0 0 0 0 1 0 0 0 0.25 0"/>
<feBlend mode="normal" in2="effect1_dropShadow_1_372" result="effect2_dropShadow_1_372"/>
<feBlend mode="normal" in="SourceGraphic" in2="effect2_dropShadow_1_372" result="shape"/>
<feColorMatrix in="SourceAlpha" type="matrix" values="0 0 0 0 0 0 0 0 0 0 0 0 0 0 0 0 0 0 127 0" result="hardAlpha"/>
<feOffset/>
<feGaussianBlur stdDeviation="9.73043"/>
<feComposite in2="hardAlpha" operator="arithmetic" k2="-1" k3="1"/>
<feColorMatrix type="matrix" values="0 0 0 0 1 0 0 0 0 1 0 0 0 0 1 0 0 0 1 0"/>
<feBlend mode="normal" in2="shape" result="effect3_innerShadow_1_372"/>
</filter>
<filter id="filter1_i_1_372" x="62.8917" y="58.1817" width="129.834" height="83.3584" filterUnits="userSpaceOnUse" color-interpolation-filters="sRGB">
<feFlood flood-opacity="0" result="BackgroundImageFix"/>
<feBlend mode="normal" in="SourceGraphic" in2="BackgroundImageFix" result="shape"/>
<feColorMatrix in="SourceAlpha" type="matrix" values="0 0 0 0 0 0 0 0 0 0 0 0 0 0 0 0 0 0 127 0" result="hardAlpha"/>
<feOffset dy="2.89448"/>
<feGaussianBlur stdDeviation="1.44724"/>
<feComposite in2="hardAlpha" operator="arithmetic" k2="-1" k3="1"/>
<feColorMatrix type="matrix" values="0 0 0 0 0 0 0 0 0 0 0 0 0 0 0 0 0 0 0.25 0"/>
<feBlend mode="normal" in2="shape" result="effect1_innerShadow_1_372"/>
</filter>
<filter id="filter2_ddi_1_372" x="0.986305" y="0.814397" width="253.008" height="200.52" filterUnits="userSpaceOnUse" color-interpolation-filters="sRGB">
<feFlood flood-opacity="0" result="BackgroundImageFix"/>
<feColorMatrix in="SourceAlpha" type="matrix" values="0 0 0 0 0 0 0 0 0 0 0 0 0 0 0 0 0 0 127 0" result="hardAlpha"/>
<feOffset dy="2.66037"/>
<feGaussianBlur stdDeviation="22.1928"/>
<feComposite in2="hardAlpha" operator="out"/>
<feColorMatrix type="matrix" values="0 0 0 0 0.843137 0 0 0 0 0.886275 0 0 0 0 0.92549 0 0 0 0.34 0"/>
<feBlend mode="normal" in2="BackgroundImageFix" result="effect1_dropShadow_1_372"/>
<feColorMatrix in="SourceAlpha" type="matrix" values="0 0 0 0 0 0 0 0 0 0 0 0 0 0 0 0 0 0 127 0" result="hardAlpha"/>
<feOffset dy="2.66037"/>
<feGaussianBlur stdDeviation="26.423"/>
<feComposite in2="hardAlpha" operator="out"/>
<feColorMatrix type="matrix" values="0 0 0 0 1 0 0 0 0 1 0 0 0 0 1 0 0 0 0.25 0"/>
<feBlend mode="normal" in2="effect1_dropShadow_1_372" result="effect2_dropShadow_1_372"/>
<feBlend mode="normal" in="SourceGraphic" in2="effect2_dropShadow_1_372" result="shape"/>
<feColorMatrix in="SourceAlpha" type="matrix" values="0 0 0 0 0 0 0 0 0 0 0 0 0 0 0 0 0 0 127 0" result="hardAlpha"/>
<feOffset/>
<feGaussianBlur stdDeviation="9.73043"/>
<feComposite in2="hardAlpha" operator="arithmetic" k2="-1" k3="1"/>
<feColorMatrix type="matrix" values="0 0 0 0 1 0 0 0 0 1 0 0 0 0 1 0 0 0 1 0"/>
<feBlend mode="normal" in2="shape" result="effect3_innerShadow_1_372"/>
</filter>
<filter id="filter3_i_1_372" x="62.8917" y="58.1817" width="129.834" height="83.3584" filterUnits="userSpaceOnUse" color-interpolation-filters="sRGB">
<feFlood flood-opacity="0" result="BackgroundImageFix"/>
<feBlend mode="normal" in="SourceGraphic" in2="BackgroundImageFix" result="shape"/>
<feColorMatrix in="SourceAlpha" type="matrix" values="0 0 0 0 0 0 0 0 0 0 0 0 0 0 0 0 0 0 127 0" result="hardAlpha"/>
<feOffset dy="2.89448"/>
<feGaussianBlur stdDeviation="1.44724"/>
<feComposite in2="hardAlpha" operator="arithmetic" k2="-1" k3="1"/>
<feColorMatrix type="matrix" values="0 0 0 0 0 0 0 0 0 0 0 0 0 0 0 0 0 0 0.25 0"/>
<feBlend mode="normal" in2="shape" result="effect1_innerShadow_1_372"/>
</filter>
<filter id="filter4_dd_1_372" x="23.3396" y="17.5494" width="210.205" height="169.085" filterUnits="userSpaceOnUse" color-interpolation-filters="sRGB">
<feFlood flood-opacity="0" result="BackgroundImageFix"/>
<feColorMatrix in="SourceAlpha" type="matrix" values="0 0 0 0 0 0 0 0 0 0 0 0 0 0 0 0 0 0 127 0" result="hardAlpha"/>
<feOffset dy="2.74593"/>
<feGaussianBlur stdDeviation="22.9066"/>
<feComposite in2="hardAlpha" operator="out"/>
<feColorMatrix type="matrix" values="0 0 0 0 0.827451 0 0 0 0 0.87451 0 0 0 0 0.913725 0 0 0 0.39 0"/>
<feBlend mode="normal" in2="BackgroundImageFix" result="effect1_dropShadow_1_372"/>
<feColorMatrix in="SourceAlpha" type="matrix" values="0 0 0 0 0 0 0 0 0 0 0 0 0 0 0 0 0 0 127 0" result="hardAlpha"/>
<feOffset dy="2.74593"/>
<feGaussianBlur stdDeviation="27.2728"/>
<feComposite in2="hardAlpha" operator="out"/>
<feColorMatrix type="matrix" values="0 0 0 0 1 0 0 0 0 1 0 0 0 0 1 0 0 0 0.25 0"/>
<feBlend mode="normal" in2="effect1_dropShadow_1_372" result="effect2_dropShadow_1_372"/>
<feBlend mode="normal" in="SourceGraphic" in2="effect2_dropShadow_1_372" result="shape"/>
</filter>
<filter id="filter5_f_1_372" x="109.248" y="80.0835" width="38.5308" height="38.5307" filterUnits="userSpaceOnUse" color-interpolation-filters="sRGB">
<feFlood flood-opacity="0" result="BackgroundImageFix"/>
<feBlend mode="normal" in="SourceGraphic" in2="BackgroundImageFix" result="shape"/>
<feGaussianBlur stdDeviation="1.59643" result="effect1_foregroundBlur_1_372"/>
</filter>
<radialGradient id="paint0_diamond_1_372" cx="0" cy="0" r="1" gradientUnits="userSpaceOnUse" gradientTransform="translate(139.983 161.237) rotate(-107.47) scale(155.791 155.791)">
<stop offset="0.421875" stop-color="#A349EF"/>
<stop offset="1" stop-color="#FF65E6"/>
</radialGradient>
<radialGradient id="paint1_diamond_1_372" cx="0" cy="0" r="1" gradientUnits="userSpaceOnUse" gradientTransform="translate(92.3717 116.49) rotate(-116.259) scale(74.3479 39.3607)">
<stop stop-color="#FF9FEA"/>
<stop offset="1" stop-color="white" stop-opacity="0"/>
</radialGradient>
<linearGradient id="paint2_linear_1_372" x1="121.701" y1="54.5941" x2="153.989" y2="145.309" gradientUnits="userSpaceOnUse">
<stop stop-color="#7A96AC"/>
<stop offset="0.18" stop-color="#EAEFF3"/>
<stop offset="0.315" stop-color="#C2D4E1"/>
<stop offset="0.491919" stop-color="white"/>
<stop offset="0.615" stop-color="#D4DEE5"/>
<stop offset="0.785" stop-color="#ABBDC8"/>
<stop offset="0.955" stop-color="#BCCAD7"/>
</linearGradient>
<radialGradient id="paint3_diamond_1_372" cx="0" cy="0" r="1" gradientUnits="userSpaceOnUse" gradientTransform="translate(139.983 161.237) rotate(-107.47) scale(155.791 155.791)">
<stop offset="0.421875" stop-color="#A349EF"/>
<stop offset="1" stop-color="#FF65E6"/>
</radialGradient>
<radialGradient id="paint4_diamond_1_372" cx="0" cy="0" r="1" gradientUnits="userSpaceOnUse" gradientTransform="translate(92.3717 116.49) rotate(-116.259) scale(74.3479 39.3607)">
<stop stop-color="#FF9FEA"/>
<stop offset="1" stop-color="white" stop-opacity="0"/>
</radialGradient>
<linearGradient id="paint5_linear_1_372" x1="121.701" y1="54.5941" x2="153.989" y2="145.309" gradientUnits="userSpaceOnUse">
<stop stop-color="#7A96AC"/>
<stop offset="0.18" stop-color="#EAEFF3"/>
<stop offset="0.315" stop-color="#C2D4E1"/>
<stop offset="0.491919" stop-color="white"/>
<stop offset="0.615" stop-color="#D4DEE5"/>
<stop offset="0.785" stop-color="#ABBDC8"/>
<stop offset="0.955" stop-color="#BCCAD7"/>
</linearGradient>
<radialGradient id="paint6_diamond_1_372" cx="0" cy="0" r="1" gradientUnits="userSpaceOnUse" gradientTransform="translate(135.248 139.092) rotate(-107.47) scale(98.5625 98.5624)">
<stop offset="0.421875" stop-color="#A349EF"/>
<stop offset="1" stop-color="#FF65E6"/>
</radialGradient>
<linearGradient id="paint7_linear_1_372" x1="128.414" y1="69.3491" x2="128.414" y2="129.343" gradientUnits="userSpaceOnUse">
<stop stop-color="#38A3CA"/>
<stop offset="0.09" stop-color="#39A6C9"/>
<stop offset="0.205" stop-color="#4193D9"/>
<stop offset="0.35" stop-color="#4191D8"/>
<stop offset="0.635" stop-color="#4391DB"/>
<stop offset="0.73" stop-color="#39A5CA"/>
<stop offset="0.9" stop-color="#3F93D8"/>
<stop offset="1" stop-color="#38A0CC"/>
</linearGradient>
<linearGradient id="paint8_linear_1_372" x1="94.7648" y1="22.8863" x2="102.288" y2="23.2295" gradientUnits="userSpaceOnUse">
<stop stop-color="#40BEBE"/>
<stop offset="1" stop-color="#2361E6"/>
</linearGradient>
</defs>
</svg>
